solid OpenSCAD_Model
  facet normal 1 0 0
    outer loop
      vertex 40 8 50
      vertex 40 3 40
      vertex 40 8 40
    endloop
  endfacet
  facet normal 1 0 0
    outer loop
      vertex 40 3 40
      vertex 40 0 50
      vertex 40 3 10
    endloop
  endfacet
  facet normal 1 -0 0
    outer loop
      vertex 40 0 50
      vertex 40 3 40
      vertex 40 8 50
    endloop
  endfacet
  facet normal 1 0 0
    outer loop
      vertex 40 8 10
      vertex 40 3 10
      vertex 40 8 8
    endloop
  endfacet
  facet normal 1 -0 0
    outer loop
      vertex 40 8 8
      vertex 40 9 0
      vertex 40 9 8
    endloop
  endfacet
  facet normal 1 0 0
    outer loop
      vertex 40 0 0
      vertex 40 8 8
      vertex 40 3 10
    endloop
  endfacet
  facet normal 1 0 0
    outer loop
      vertex 40 8 8
      vertex 40 0 0
      vertex 40 9 0
    endloop
  endfacet
  facet normal 1 0 0
    outer loop
      vertex 40 0 0
      vertex 40 3 10
      vertex 40 0 50
    endloop
  endfacet
  facet normal -0 0 1
    outer loop
      vertex 0 8 50
      vertex 40 0 50
      vertex 40 8 50
    endloop
  endfacet
  facet normal 0 0 1
    outer loop
      vertex 40 0 50
      vertex 0 8 50
      vertex 0 0 50
    endloop
  endfacet
  facet normal 0 0 -1
    outer loop
      vertex 0 0 0
      vertex 40 9 0
      vertex 40 0 0
    endloop
  endfacet
  facet normal -0 0 -1
    outer loop
      vertex 40 9 0
      vertex 0 0 0
      vertex 0 9 0
    endloop
  endfacet
  facet normal -1 0 0
    outer loop
      vertex 0 9 0
      vertex 0 8 8
      vertex 0 9 8
    endloop
  endfacet
  facet normal -1 0 0
    outer loop
      vertex 0 8 8
      vertex 0 3 10
      vertex 0 8 10
    endloop
  endfacet
  facet normal -1 0 0
    outer loop
      vertex 0 0 0
      vertex 0 8 8
      vertex 0 9 0
    endloop
  endfacet
  facet normal -1 -0 0
    outer loop
      vertex 0 3 10
      vertex 0 0 0
      vertex 0 3 40
    endloop
  endfacet
  facet normal -1 -0 0
    outer loop
      vertex 0 8 8
      vertex 0 0 0
      vertex 0 3 10
    endloop
  endfacet
  facet normal -1 0 0
    outer loop
      vertex 0 3 40
      vertex 0 8 50
      vertex 0 8 40
    endloop
  endfacet
  facet normal -1 0 0
    outer loop
      vertex 0 3 40
      vertex 0 0 50
      vertex 0 8 50
    endloop
  endfacet
  facet normal -1 0 0
    outer loop
      vertex 0 0 50
      vertex 0 3 40
      vertex 0 0 0
    endloop
  endfacet
  facet normal 0 1 -0
    outer loop
      vertex 40 8 40
      vertex 0 8 50
      vertex 40 8 50
    endloop
  endfacet
  facet normal 0 1 0
    outer loop
      vertex 0 8 50
      vertex 40 8 40
      vertex 0 8 40
    endloop
  endfacet
  facet normal 0 1 -0
    outer loop
      vertex 40 8 8
      vertex 0 8 10
      vertex 40 8 10
    endloop
  endfacet
  facet normal 0 1 0
    outer loop
      vertex 0 8 10
      vertex 40 8 8
      vertex 0 8 8
    endloop
  endfacet
  facet normal 0 -1 0
    outer loop
      vertex 0 0 0
      vertex 40 0 50
      vertex 0 0 50
    endloop
  endfacet
  facet normal 0 -1 -0
    outer loop
      vertex 40 0 50
      vertex 0 0 0
      vertex 40 0 0
    endloop
  endfacet
  facet normal 0 0 -1
    outer loop
      vertex 35 3 40
      vertex 40 8 40
      vertex 40 3 40
    endloop
  endfacet
  facet normal 0 0 -1
    outer loop
      vertex 5 3 40
      vertex 40 8 40
      vertex 35 3 40
    endloop
  endfacet
  facet normal 0 0 -1
    outer loop
      vertex 0 8 40
      vertex 5 3 40
      vertex 0 3 40
    endloop
  endfacet
  facet normal 0 0 -1
    outer loop
      vertex 5 3 40
      vertex 0 8 40
      vertex 40 8 40
    endloop
  endfacet
  facet normal -0 0 1
    outer loop
      vertex 0 8 10
      vertex 40 3 10
      vertex 40 8 10
    endloop
  endfacet
  facet normal 0 0 1
    outer loop
      vertex 40 3 10
      vertex 0 8 10
      vertex 0 3 10
    endloop
  endfacet
  facet normal 0 1 0
    outer loop
      vertex 40 3 40
      vertex 35 3 35
      vertex 35 3 40
    endloop
  endfacet
  facet normal 0 1 0
    outer loop
      vertex 35 3 35
      vertex 40 3 10
      vertex 5 3 35
    endloop
  endfacet
  facet normal 0 1 -0
    outer loop
      vertex 40 3 10
      vertex 35 3 35
      vertex 40 3 40
    endloop
  endfacet
  facet normal 0 1 -0
    outer loop
      vertex 5 3 35
      vertex 0 3 40
      vertex 5 3 40
    endloop
  endfacet
  facet normal 0 1 0
    outer loop
      vertex 5 3 35
      vertex 0 3 10
      vertex 0 3 40
    endloop
  endfacet
  facet normal 0 1 0
    outer loop
      vertex 0 3 10
      vertex 5 3 35
      vertex 40 3 10
    endloop
  endfacet
  facet normal 0 1 -0
    outer loop
      vertex 35 3 35
      vertex 5 3 40
      vertex 35 3 40
    endloop
  endfacet
  facet normal 0 1 0
    outer loop
      vertex 5 3 40
      vertex 35 3 35
      vertex 5 3 35
    endloop
  endfacet
  facet normal -0 0 1
    outer loop
      vertex 0 9 8
      vertex 40 8 8
      vertex 40 9 8
    endloop
  endfacet
  facet normal 0 0 1
    outer loop
      vertex 40 8 8
      vertex 0 9 8
      vertex 0 8 8
    endloop
  endfacet
  facet normal 0 1 -0
    outer loop
      vertex 40 9 0
      vertex 0 9 8
      vertex 40 9 8
    endloop
  endfacet
  facet normal 0 1 0
    outer loop
      vertex 0 9 8
      vertex 40 9 0
      vertex 0 9 0
    endloop
  endfacet
endsolid OpenSCAD_Model
